<?xml version="1.0" encoding="utf-8"?>
<!-- Generator: Adobe Illustrator 19.2.0, SVG Export Plug-In . SVG Version: 6.00 Build 0)  -->
<svg version="1.1" id="Warstwa_1" xmlns="http://www.w3.org/2000/svg" xmlns:xlink="http://www.w3.org/1999/xlink" x="0px" y="0px"
	 viewBox="0 0 100 100" style="enable-background:new 0 0 100 100;" xml:space="preserve">
<style type="text/css">
	.st0{fill:#5F7FBF;}
	.st1{fill:#96CA4C;}
</style>
<g>
	<g>
		<g>
			<path class="st0" d="M49.7,0c0.2,0,0.4,8.6,0.4,20.9c10.5-10.5,15.9-9,23.2-4.9c10.5,7.3,8.4,21.5,8.8,21.9
				c0.4,0.6,1.5,1.7,1.5,1.7l-4.7,3.9L63.2,26.7c0,0-1.3-1.5-3.2-0.6c-2.4,1.1-5.4,5.4-5.2,5.4c0,0-2.8-3-4.9-5.2c0,0.6,0,1.5,0,2.2
				l22.2,23.2c0,0-4.1,4.5-4.5,4.5c-2.4-1.5-9,0-9,0l-8.6,8c0,19.6-0.2,35.9-0.4,35.7c27.8,0,50.1-22.4,50.1-50.1
				C99.8,22.4,77.4,0,49.7,0z M50.1,48l0.9-0.9L50.1,46C50.1,46.9,50.1,47.3,50.1,48z"/>
		</g>
	</g>
	<g>
		<g>
			<path class="st1" d="M25.6,86.9c0,0-4.9,1.3-7.1-2.8c-2.2-4.3,0-6.2,0-6.2S30.7,68,33.3,62.4c2.6-5.6-1.5-6.5-0.9-9.5
				c0.6-3,3.2-3.4,3.2-3.4l6.5,5.8l8-7.1c0-0.6,0-1.1,0-1.7L37.2,32.2l9-7.7l3.9,4.1c0-0.9,0-1.5,0-2.2c-1.3-1.3-2.4-2.6-2.6-2.6
				c0.9-1.1,1.7-1.9,2.6-2.8C50.1,8.6,50.3,0,50.5,0C22.8,0,0.4,22.4,0.4,49.9c0,27.8,22.4,50.1,50.1,50.1c0,0.2-0.2-16.4-0.4-35.9
				L25.6,86.9z M36.1,32.7l7.1,8l-4.3,4.1l-7.1-8L36.1,32.7z"/>
		</g>
	</g>
</g>
</svg>
